<?xml version="1.0" encoding="UTF-8"?>
<svg width="456" height="456" viewBox="0 0 456 456" xmlns="http://www.w3.org/2000/svg">
    <g transform="translate(78,78)">
        <!-- Brain icon representing ADHD Helper -->
        <path d="M150 40 C200 40 240 80 240 130 C240 140 235 150 230 155 C235 165 240 175 240 185 C240 220 210 250 175 250 C170 250 165 249 160 247 C155 249 150 250 145 250 C110 250 80 220 80 185 C80 175 85 165 90 155 C85 150 80 140 80 130 C80 80 120 40 150 40 Z" fill="#007ACC"/>

        <!-- Checkmark for task completion -->
        <path d="M120 140 L140 160 L180 120" stroke="white" stroke-width="8" fill="none" stroke-linecap="round" stroke-linejoin="round"/>

        <!-- Focus rings -->
        <circle cx="150" cy="150" r="80" stroke="#007ACC" stroke-width="3" fill="none"/>
        <circle cx="150" cy="150" r="95" stroke="#007ACC" stroke-width="2" fill="none"/>

        <!-- Calendar grid -->
        <rect x="60" y="200" width="180" height="120" rx="8" fill="#007ACC"/>
        <line x1="80" y1="220" x2="220" y2="220" stroke="white" stroke-width="2"/>
        <line x1="80" y1="240" x2="220" y2="240" stroke="white" stroke-width="1"/>
        <line x1="80" y1="260" x2="220" y2="260" stroke="white" stroke-width="1"/>
        <line x1="80" y1="280" x2="220" y2="280" stroke="white" stroke-width="1"/>
        <line x1="80" y1="300" x2="220" y2="300" stroke="white" stroke-width="1"/>

        <!-- Vertical lines -->
        <line x1="100" y1="200" x2="100" y2="320" stroke="white" stroke-width="1"/>
        <line x1="120" y1="200" x2="120" y2="320" stroke="white" stroke-width="1"/>
        <line x1="140" y1="200" x2="140" y2="320" stroke="white" stroke-width="1"/>
        <line x1="160" y1="200" x2="160" y2="320" stroke="white" stroke-width="1"/>
        <line x1="180" y1="200" x2="180" y2="320" stroke="white" stroke-width="1"/>
        <line x1="200" y1="200" x2="200" y2="320" stroke="white" stroke-width="1"/>
    </g>
</svg>